<?xml version="1.0" standalone="no"?><!DOCTYPE svg PUBLIC "-//W3C//DTD SVG 1.1//EN" "http://www.w3.org/Graphics/SVG/1.1/DTD/svg11.dtd"><svg t="1566009569797" class="icon" viewBox="0 0 1024 1024" version="1.1" xmlns="http://www.w3.org/2000/svg" p-id="1883" width="32" height="32" xmlns:xlink="http://www.w3.org/1999/xlink"><defs><style type="text/css"></style></defs><path d="M541.781333 926.549333a42.666667 42.666667 0 0 1-59.562666 0C275.413333 724.949333 170.666667 563.370667 170.666667 435.2 170.666667 242.218667 323.2 85.333333 512 85.333333s341.333333 156.885333 341.333333 349.866667c0 128.170667-104.746667 289.749333-311.552 491.349333zM768 435.2C768 288.853333 653.098667 170.666667 512 170.666667s-256 118.186667-256 264.533333c0 92.842667 84.565333 228.266667 256 400.768 171.434667-172.501333 256-307.925333 256-400.768zM512 554.666667c-65.066667 0-117.333333-53.76-117.333333-119.466667 0-65.706667 52.266667-119.466667 117.333333-119.466667s117.333333 53.76 117.333333 119.466667c0 65.706667-52.266667 119.466667-117.333333 119.466667z m0-85.333334c17.408 0 32-15.018667 32-34.133333 0-19.114667-14.592-34.133333-32-34.133333s-32 15.018667-32 34.133333c0 19.114667 14.592 34.133333 32 34.133333z" p-id="1884" fill="#ed7208"></path></svg>